<svg width="64" height="64" xmlns="http://www.w3.org/2000/svg" xmlns:xlink="http://www.w3.org/1999/xlink"><defs><rect id="a" width="64" height="64" rx="15"/><linearGradient x1="49.999%" y1="99.999%" x2="49.999%" y2="-.001%" id="c"><stop stop-color="#FFF" stop-opacity="0" offset="0%"/><stop stop-color="#FFF" offset="100%"/></linearGradient><linearGradient x1="-3.354%" y1="96.53%" x2="97.106%" y2="-.808%" id="d"><stop stop-color="#FFF" offset="80%"/><stop stop-color="#FFF" stop-opacity="0" offset="100%"/></linearGradient></defs><g fill="none" fill-rule="evenodd"><mask id="b" fill="#fff"><use xlink:href="#a"/></mask><g mask="url(#b)"><path fill="#EFEFEF" fill-rule="nonzero" d="M0 0h64v64H0z"/><path d="M54.4 64V0M9.6 64V0m8.862 64V0m9.353 64V0m8.37 64V0m9.353 64V0M0 54.4h64M0 9.6h64M0 18.462h64M0 27.323h64M0 36.185h64M0 45.538h64" stroke="#E0E1E2"/><g fill-rule="nonzero"><path d="M51.101 45.068l-30.17-30.17a1.423 1.423 0 0 0-2.01 0l-4.023 4.022a1.424 1.424 0 0 0 0 2.012l30.17 30.17a1.423 1.423 0 0 0 2.011 0l4.022-4.022a1.424 1.424 0 0 0 0-2.012zM18.67 20.68a1.42 1.42 0 1 1 2.01-2.011 1.422 1.422 0 1 1-2.01 2.011z" fill="#FFBE2A"/><path d="M37.102 31.068L6.932.898a1.423 1.423 0 0 0-2.012 0L.9 4.92a1.424 1.424 0 0 0 0 2.013l30.17 30.17a1.423 1.423 0 0 0 2.011 0l4.022-4.023a1.424 1.424 0 0 0 0-2.012zM4.67 6.68a1.42 1.42 0 1 1 2.011-2.011A1.422 1.422 0 1 1 4.67 6.681V6.68z" opacity=".12" fill="url(#c)" transform="translate(14 14)"/><path fill="#000" opacity=".08" d="M39.035 33L33 39.034l-1.005-1.005 6.034-6.035z"/><path fill="#1C7ED7" d="M39.663 21.309L21.166 39.806l-.012 5.04 5.04-.012 18.497-18.497-2.011-3.017z"/><path d="M48.692 22.337l1.594-1.594c1.41-1.41 1.3-3.624-.153-5.009-1.413-1.347-3.682-1.213-5.063.167l-1.406 1.407 1.944 2.952 3.084 2.076z" fill="#F9422A"/><path fill="#BDC3C7" d="M44.692 26.337l-5.028-5.028 4.022-4.022 5.029 5.028z"/><path fill="#000" opacity=".2" d="M46.2 24.829l-5.028-5.028 1.005-1.005 5.028 5.028z"/><path d="M24.402 44.415a.225.225 0 0 1-.188-.188l-.289-1.914a.222.222 0 0 0-.188-.189l-1.911-.287a.224.224 0 0 1-.188-.189l-.305-2.008-.18.18c-.86.86-1.567 1.862-2.09 2.962l-1.694 3.455-.31 2.707 2.706-.31 3.455-1.695a10.639 10.639 0 0 0 2.962-2.09l.179-.18-1.957-.253-.001-.001z" fill="#ECAD76"/><path d="M19.763 48.633l-2.396-2.396-1.737 3.543a.444.444 0 0 0 .59.59l3.543-1.737z" fill="#39546F"/><path fill="#1C7ED7" d="M39.663 21.309L21.166 39.806l-.012 5.04 5.04-.012 18.497-18.497-2.011-3.017z"/><path d="M48.692 22.337l1.594-1.594c1.41-1.41 1.3-3.624-.153-5.009-1.413-1.347-3.682-1.213-5.063.167l-1.406 1.407 1.944 2.952 3.084 2.076z" fill="#F9422A"/><path fill="#BDC3C7" d="M44.692 26.337l-5.028-5.028 4.022-4.022 5.029 5.028z"/><path d="M45.666 25.362l-5.027-5.028.65-.65 5.027 5.028-.65.65zm1.423-1.422l-5.028-5.029.65-.65 5.028 5.029-.65.65zm-22.931-1.708l-.503-.502 2.055-2.055.502.503-2.054 2.054z" fill="#000" opacity=".08"/><path fill="#FFF" opacity=".16" d="M24.66 22.735l-.502-.502 2.054-2.055.502.503z"/><path fill="#000" opacity=".08" d="M25.856 26.065l-.502-.503 3.12-3.121.503.502z"/><path fill="#FFF" opacity=".16" d="M26.36 26.568l-.503-.503 3.121-3.121.502.503z"/><path fill="#000" opacity=".08" d="M29.688 27.764l-.502-.502 2.055-2.056.502.503z"/><path fill="#FFF" opacity=".16" d="M30.192 28.267l-.503-.503 2.055-2.055.502.503z"/><path fill="#000" opacity=".08" d="M37.17 37.379l-.503-.503 3.122-3.121.502.503z"/><path fill="#FFF" opacity=".16" d="M37.672 37.882l-.502-.503 3.121-3.121.503.503z"/><path fill="#000" opacity=".08" d="M41.002 39.078l-.502-.503 2.055-2.055.502.503z"/><path fill="#FFF" opacity=".16" d="M41.505 39.58l-.503-.502 2.055-2.055.502.503z"/><path fill="#000" opacity=".08" d="M42.701 42.91l-.502-.503 3.121-3.12.502.502z"/><path fill="#FFF" opacity=".16" d="M43.204 43.413l-.503-.503 3.121-3.12.503.503z"/><path fill="#000" opacity=".08" d="M46.533 44.609l-.502-.503 2.055-2.055.502.503z"/><path fill="#FFF" opacity=".16" d="M47.036 45.112l-.503-.503 2.056-2.055.502.503z"/><path d="M24.402 44.415a.225.225 0 0 1-.188-.188l-.289-1.914a.222.222 0 0 0-.188-.189l-1.911-.287a.224.224 0 0 1-.188-.189l-.305-2.008-.18.18c-.86.86-1.567 1.862-2.09 2.962l-1.694 3.455-.31 2.707 2.706-.31 3.455-1.695a10.639 10.639 0 0 0 2.962-2.09l.179-.18-1.957-.253-.001-.001z" fill="#ECAD76"/><path d="M19.763 48.633l-2.396-2.396-1.737 3.543a.444.444 0 0 0 .59.59l3.543-1.737z" fill="#39546F"/><path d="M2.53 32.751l2.343-2.871A34.68 34.68 0 0 1 7.3 27.19l.015-.015L31.509 2.982c1.05-1.05 2.178-1.817 2.865-1.972-1.42-1.102-3.505-.907-4.803.391L5.666 25.306l-.014.014a10.66 10.66 0 0 0-2.09 2.962l-1.695 3.454L.13 35.28a.434.434 0 0 0 .012.398l2.388-2.927z" opacity=".12" transform="translate(15.5 14.5)" fill="url(#d)"/></g></g></g></svg>